inDegrees=no
num_controls=7
num_derivatives=13
num_iterations=91
num_multipliers=7
num_parameters=0
num_slacks=7
num_states=26
objective=0.431139
objective_accelerations=0.051090
objective_balance=0.006868
objective_effort=0.031548
objective_height=0.340481
objective_ligament=0.001153
solver_duration=1566.878614
status=Solve_Succeeded
success=true
DataType=double
version=3
OpenSimVersion=4.5
endheader
time	/jointset/ground_pelvis/pelvis_tilt/value	/jointset/ground_pelvis/pelvis_tx/value	/jointset/ground_pelvis/pelvis_ty/value	/jointset/hip_l/hip_flexion_l/value	/jointset/hip_l/hip_adduction_l/value	/jointset/hip_l/hip_rotation_l/value	/jointset/back/lumbar_extension/value	/jointset/patellofemoral_l/patellar_flexion_l/value	/jointset/knee_l/knee_flexion_l/value	/jointset/knee_l/knee_adduction_l/value	/jointset/knee_l/knee_rotation_l/value	/jointset/ankle_l/ankle_angle_l/value	/jointset/subtalar_l/subtalar_angle_l/value	/jointset/ground_pelvis/pelvis_tilt/speed	/jointset/ground_pelvis/pelvis_tx/speed	/jointset/ground_pelvis/pelvis_ty/speed	/jointset/hip_l/hip_flexion_l/speed	/jointset/hip_l/hip_adduction_l/speed	/jointset/hip_l/hip_rotation_l/speed	/jointset/back/lumbar_extension/speed	/jointset/patellofemoral_l/patellar_flexion_l/speed	/jointset/knee_l/knee_flexion_l/speed	/jointset/knee_l/knee_adduction_l/speed	/jointset/knee_l/knee_rotation_l/speed	/jointset/ankle_l/ankle_angle_l/speed	/jointset/subtalar_l/subtalar_angle_l/speed	/forceset/tau_hip_flexion_l	/forceset/tau_hip_adduction_l	/forceset/tau_hip_rotation_l	/forceset/tau_knee_flexion_l	/forceset/tau_ankle_angle_l	/forceset/tau_subtalar_angle_l	/forceset/tau_lumbar_extension	lambda_cid13_p0	lambda_cid13_p1	lambda_cid13_p2	lambda_cid13_p3	lambda_cid13_p4	lambda_cid13_p5	lambda_cid14_p0	/jointset/ground_pelvis/pelvis_tilt/accel	/jointset/ground_pelvis/pelvis_tx/accel	/jointset/ground_pelvis/pelvis_ty/accel	/jointset/hip_l/hip_flexion_l/accel	/jointset/hip_l/hip_adduction_l/accel	/jointset/hip_l/hip_rotation_l/accel	/jointset/back/lumbar_extension/accel	/jointset/patellofemoral_l/patellar_flexion_l/accel	/jointset/knee_l/knee_flexion_l/accel	/jointset/knee_l/knee_adduction_l/accel	/jointset/knee_l/knee_rotation_l/accel	/jointset/ankle_l/ankle_angle_l/accel	/jointset/subtalar_l/subtalar_angle_l/accel	gamma_cid13_p0	gamma_cid13_p1	gamma_cid13_p2	gamma_cid13_p3	gamma_cid13_p4	gamma_cid13_p5	gamma_cid14_p0
0	-0.1564253707748904	0.05718167347496949	0.897874925097178	0.3774924667018715	-0.2609034877557894	-0.2424561406285157	-0.01265067647494873	0.0322364824372145	0.03223648243721463	-0.1745323603588978	0.1454127502421689	-0.04231377076293093	-0.01138431646187142	0	0	0	0	0	0	0	0	0	0	0	0	0	0.1471120362473593	-0.067918348741124	-0.04918287117274506	-0.3257787299323955	0.3637937851507895	-0.05857575900632354	-0.0867490574761865	74.86478082524883	7.802380219786071	3.526637002248916	-29.26644919461485	-590.0875395622152	-60.08680980889088	-38.19506666772965	-2.843908164959757	-1.364923605244025	-0.9707761303744374	10.95673117160562	-1.357860376843421	3.461179617325255	-5.411814210157936	10.83879845611862	10.83879845611632	0.01116261781569625	0.3305883439196073	2.962630021200894	-0.6994233080936666	-6.812558347660742e-08	4.717575219194941e-08	1.887981510419816e-07	2.560958601117187e-08	-1.758426119978335e-08	-1.335505467403967e-07	-3.079910205325646e-08
0.01	-0.1565610044354579	0.057113133539195	0.8978274902839642	0.3780270899487491	-0.2609705348741679	-0.2422841055978035	-0.01292309150939599	0.0327667929921017	0.03276679299210181	-0.1745326965628538	0.1454263300061586	-0.04217084404232205	-0.01141964367553919	-0.02692120561960158	-0.0137698193684201	-0.009461065427389257	0.1065553210455488	-0.01329193392074405	0.0342134149642845	-0.05420776837551322	0.1056437994542998	0.1056437994542938	3.374271077838658e-05	0.002750155626618573	0.02833562174921937	-0.007008415275230002	0.1374581572880003	-0.07795103121095434	-0.04665769377155042	-0.3100003371021295	0.3366091158613482	-0.03980660475172599	-0.07986890699787667	66.76719485790973	1.287197105216076	4.315830711535754	-23.40834689376265	-590.7926454190278	-72.39554854508259	-38.21064573281105	-2.585407382513382	-1.392280812753966	-0.9298906834637256	10.44952308134372	-1.297274175930571	3.372356890079	-5.383972374155091	10.36443012143539	10.36443012143594	0.01466256548209242	0.2523342376608321	2.731564751350005	-0.6930251327484701	-8.138961751409825e-08	1.008263984805961e-07	1.752585289728433e-07	4.36887699210999e-08	-1.302785434490394e-07	-7.117495604460261e-08	-2.808552459666022e-08
0.02	-0.1569596862766321	0.05690504146771373	0.8976862210295677	0.379616184508145	-0.261166984187002	-0.2417757495266286	-0.01372932707217983	0.03434099342780187	0.03434099342780187	-0.1745296588461454	0.14546843233954	-0.04175205380430746	-0.01152334994106142	-0.05260963612132483	-0.02791042714135924	-0.01876688823648059	0.2108942625036661	-0.02588043889111328	0.06726420809252714	-0.106764105667311	0.2087779761625889	0.2087779761625887	0.0006747841326523714	0.005704513878351143	0.05517270348114062	-0.01367581037089216	0.1278042783286406	-0.08798371368078474	-0.04413251637035635	-0.2942219442718637	0.3094244465719078	-0.02103745049712854	-0.07298875651956734	58.75764200077929	-5.245519008156944	5.110245824630844	-17.77660452674422	-590.2069853469147	-84.58962312566852	-38.2568807460606	-2.59735314138418	-1.439081286147834	-0.9397276067148533	10.51345525411934	-1.217174586768281	3.228655250116886	-5.08152799341501	10.33687390691648	10.33687390691654	0.1326223600516468	0.3714288689424068	2.662922017741271	-0.6312192721800984	-9.465365155158907e-08	1.544770447692428e-07	1.617189069037051e-07	6.176795383102793e-08	-2.429728256982955e-07	-8.799365348808511e-09	-2.537194714006397e-08
0.03	-0.1576099990939814	0.05655523157958392	0.8974524904589884	0.3822365003995574	-0.2614862019544554	-0.240942222787484	-0.01505153061179402	0.03693371726141069	0.03693371726141068	-0.1745183955489072	0.1455406921241469	-0.04107069589293599	-0.01169208000662865	-0.07730895468473793	-0.04195749145858523	-0.02796575239057523	0.3126373691857964	-0.03789580145556923	0.09929621971395768	-0.1572977790337129	0.3092912699101185	0.3092912699101188	0.001534623378357311	0.00873071457810924	0.08100641456958488	-0.02003070247799879	0.1224027603125656	-0.08184317926890157	-0.04333438258826382	-0.2891808947965768	0.3039437319857433	-0.02390092585449447	-0.06853173859305839	56.89260383404113	-3.829684410785687	5.060800140119639	-17.04276864309749	-590.3477093457157	-80.9176143280722	-38.3323066858125	-2.384633011588335	-1.373397723971349	-0.907993846332151	9.924993566966013	-1.183652311364743	3.168715669181318	-4.982463524978631	9.837234074739234	9.837234074739225	0.05621854661018161	0.2656882995002915	2.529719834734827	-0.6317408617860177	-1.19700970754657e-07	1.581989432163054e-07	2.027017639136532e-07	8.440491911957453e-08	-3.622855419522351e-07	-1.465595056278403e-08	-3.300277268995027e-08
0.04	-0.1585029874565185	0.05606777530438958	0.8971271656415531	0.3858582983961324	-0.2619235603915695	-0.2397927276219199	-0.01686770618841745	0.04051730942570839	0.04051730942570837	-0.1744998230912556	0.145642708441553	-0.04013377603461232	-0.01192318232962897	-0.1011447451588896	-0.0554397045542664	-0.03708573760768478	0.411190683536173	-0.04950857282324474	0.1304578933763954	-0.2055585130691548	0.4069516423003695	0.406951642300369	0.002136616215272763	0.01165582043817988	0.1062850928715821	-0.02615026185750832	0.1170012422964902	-0.07570264485701843	-0.04253624880617141	-0.2841398453212899	0.2984630173995789	-0.02676440121186044	-0.06407472066654929	55.10952562644881	-2.426245723899112	5.011101884895854	-16.5203919503886	-589.3039958544014	-77.13071621512823	-38.4349978619984	-2.424647523531944	-1.326111041838871	-0.9239518193178383	9.87549678776865	-1.136656347412191	3.05458765831832	-4.626940127223023	9.766289635460756	9.766289635460613	0.08105307829374911	0.3512099010050476	2.551915460451867	-0.5841527266606782	-1.449912442910357e-07	1.608913829449849e-07	2.448087957499742e-07	1.071358592819071e-07	-4.817347207629723e-07	-2.191938476458987e-08	-4.084688489976405e-08
